<mxfile host="app.diagrams.net" modified="2024-05-16T17:00:13.306Z" agent="Mozilla/5.0 (Windows NT 10.0; Win64; x64) AppleWebKit/537.36 (KHTML, like Gecko) Chrome/124.0.0.0 Safari/537.36" etag="cXArn02lhXG1LEsKlor9" version="24.4.3" type="device">
  <diagram id="C5RBs43oDa-KdzZeNtuy" name="Page-1">
    <mxGraphModel dx="3242" dy="2009" grid="1" gridSize="10" guides="1" tooltips="1" connect="1" arrows="1" fold="1" page="1" pageScale="1" pageWidth="827" pageHeight="1169" math="0" shadow="0">
      <root>
        <mxCell id="WIyWlLk6GJQsqaUBKTNV-0" />
        <mxCell id="WIyWlLk6GJQsqaUBKTNV-1" parent="WIyWlLk6GJQsqaUBKTNV-0" />
        <mxCell id="WIyWlLk6GJQsqaUBKTNV-2" value="" style="rounded=0;html=1;jettySize=auto;orthogonalLoop=1;fontSize=11;endArrow=block;endFill=0;endSize=8;strokeWidth=3;shadow=0;labelBackgroundColor=none;edgeStyle=orthogonalEdgeStyle;entryX=0.5;entryY=0;entryDx=0;entryDy=0;" parent="WIyWlLk6GJQsqaUBKTNV-1" source="WIyWlLk6GJQsqaUBKTNV-3" target="WIyWlLk6GJQsqaUBKTNV-6" edge="1">
          <mxGeometry relative="1" as="geometry">
            <Array as="points">
              <mxPoint x="230" y="170" />
              <mxPoint x="230" y="170" />
            </Array>
          </mxGeometry>
        </mxCell>
        <mxCell id="WIyWlLk6GJQsqaUBKTNV-3" value="&lt;b style=&quot;font-size: 15px;&quot;&gt;&lt;font face=&quot;Comic Sans MS&quot; style=&quot;font-size: 15px;&quot;&gt;Active&amp;nbsp; DHT11&lt;/font&gt;&lt;/b&gt;&lt;div style=&quot;font-size: 15px;&quot;&gt;&lt;b style=&quot;&quot;&gt;&lt;font face=&quot;y1WU77LzWbdZWBKxwMJ-&quot; style=&quot;font-size: 15px;&quot;&gt;(Tempreture,humadity) sensor&lt;/font&gt;&lt;/b&gt;&lt;/div&gt;" style="rounded=1;whiteSpace=wrap;html=1;fontSize=12;glass=0;strokeWidth=3;shadow=0;" parent="WIyWlLk6GJQsqaUBKTNV-1" vertex="1">
          <mxGeometry x="120" y="70" width="200" height="60" as="geometry" />
        </mxCell>
        <mxCell id="WIyWlLk6GJQsqaUBKTNV-6" value="&lt;b style=&quot;font-size: 15px;&quot;&gt;&lt;font style=&quot;font-size: 15px;&quot; face=&quot;Comic Sans MS&quot;&gt;if tempreture&lt;/font&gt;&lt;/b&gt;&lt;div style=&quot;font-size: 15px;&quot;&gt;&lt;b style=&quot;&quot;&gt;&lt;font style=&quot;font-size: 15px;&quot; face=&quot;m28qK6ouoQEzhqBSlmqq&quot;&gt;&amp;lt;26&lt;/font&gt;&lt;/b&gt;&lt;/div&gt;" style="rhombus;whiteSpace=wrap;html=1;shadow=0;fontFamily=Helvetica;fontSize=12;align=center;strokeWidth=3;spacing=6;spacingTop=-4;" parent="WIyWlLk6GJQsqaUBKTNV-1" vertex="1">
          <mxGeometry x="160" y="200" width="140" height="110" as="geometry" />
        </mxCell>
        <mxCell id="xtiBK4g38aYfQXqHlMzY-1" value="" style="strokeWidth=3;html=1;shape=mxgraph.flowchart.start_2;whiteSpace=wrap;" vertex="1" parent="WIyWlLk6GJQsqaUBKTNV-1">
          <mxGeometry x="200" y="-180" width="40" height="40" as="geometry" />
        </mxCell>
        <mxCell id="xtiBK4g38aYfQXqHlMzY-4" value="" style="rounded=0;html=1;jettySize=auto;orthogonalLoop=1;fontSize=11;endArrow=block;endFill=0;endSize=8;strokeWidth=3;shadow=0;labelBackgroundColor=none;edgeStyle=orthogonalEdgeStyle;exitX=0.5;exitY=1;exitDx=0;exitDy=0;exitPerimeter=0;entryX=0.5;entryY=0;entryDx=0;entryDy=0;" edge="1" parent="WIyWlLk6GJQsqaUBKTNV-1" source="xtiBK4g38aYfQXqHlMzY-1" target="WIyWlLk6GJQsqaUBKTNV-3">
          <mxGeometry relative="1" as="geometry">
            <mxPoint x="200" y="20" as="sourcePoint" />
            <mxPoint x="240" y="50" as="targetPoint" />
            <Array as="points" />
          </mxGeometry>
        </mxCell>
        <mxCell id="xtiBK4g38aYfQXqHlMzY-6" value="&lt;b style=&quot;font-size: 15px;&quot;&gt;&lt;font style=&quot;font-size: 15px;&quot; face=&quot;Comic Sans MS&quot;&gt;if humadity&lt;/font&gt;&lt;/b&gt;&lt;div&gt;&lt;b style=&quot;font-size: 15px;&quot;&gt;&lt;font style=&quot;font-size: 15px;&quot; face=&quot;Comic Sans MS&quot;&gt;&amp;gt;=40&amp;amp;&amp;amp;&lt;/font&gt;&lt;/b&gt;&lt;/div&gt;&lt;div&gt;&lt;b style=&quot;font-size: 15px;&quot;&gt;&lt;font style=&quot;font-size: 15px;&quot; face=&quot;Comic Sans MS&quot;&gt;&amp;lt;=60&lt;/font&gt;&lt;/b&gt;&lt;/div&gt;" style="rhombus;whiteSpace=wrap;html=1;shadow=0;fontFamily=Helvetica;fontSize=12;align=center;strokeWidth=3;spacing=6;spacingTop=-4;" vertex="1" parent="WIyWlLk6GJQsqaUBKTNV-1">
          <mxGeometry x="500" y="40" width="145" height="100" as="geometry" />
        </mxCell>
        <mxCell id="xtiBK4g38aYfQXqHlMzY-7" value="&lt;font size=&quot;1&quot; face=&quot;Comic Sans MS&quot;&gt;&lt;b style=&quot;font-size: 25px;&quot;&gt;fan _off()&lt;/b&gt;&lt;/font&gt;" style="rounded=1;whiteSpace=wrap;html=1;fontSize=12;glass=0;strokeWidth=3;shadow=0;" vertex="1" parent="WIyWlLk6GJQsqaUBKTNV-1">
          <mxGeometry x="130" y="440" width="200" height="60" as="geometry" />
        </mxCell>
        <mxCell id="xtiBK4g38aYfQXqHlMzY-8" value="&lt;font size=&quot;1&quot; face=&quot;Comic Sans MS&quot;&gt;&lt;b style=&quot;font-size: 27px;&quot;&gt;fan _on()&lt;/b&gt;&lt;/font&gt;" style="rounded=1;whiteSpace=wrap;html=1;fontSize=12;glass=0;strokeWidth=3;shadow=0;" vertex="1" parent="WIyWlLk6GJQsqaUBKTNV-1">
          <mxGeometry x="600" y="480" width="200" height="60" as="geometry" />
        </mxCell>
        <mxCell id="xtiBK4g38aYfQXqHlMzY-9" value="&lt;b&gt;&lt;font style=&quot;font-size: 15px;&quot;&gt;NO&lt;/font&gt;&lt;/b&gt;" style="rounded=0;html=1;jettySize=auto;orthogonalLoop=1;fontSize=11;endArrow=block;endFill=0;endSize=8;strokeWidth=3;shadow=0;labelBackgroundColor=none;edgeStyle=orthogonalEdgeStyle;entryX=0;entryY=0.5;entryDx=0;entryDy=0;exitX=1;exitY=0.5;exitDx=0;exitDy=0;" edge="1" parent="WIyWlLk6GJQsqaUBKTNV-1" source="WIyWlLk6GJQsqaUBKTNV-6" target="xtiBK4g38aYfQXqHlMzY-8">
          <mxGeometry y="35" relative="1" as="geometry">
            <mxPoint x="340" y="260" as="sourcePoint" />
            <mxPoint x="340" y="330" as="targetPoint" />
            <Array as="points" />
            <mxPoint as="offset" />
          </mxGeometry>
        </mxCell>
        <mxCell id="xtiBK4g38aYfQXqHlMzY-10" value="&lt;b&gt;&lt;font style=&quot;font-size: 15px;&quot;&gt;YES&lt;/font&gt;&lt;/b&gt;" style="rounded=0;html=1;jettySize=auto;orthogonalLoop=1;fontSize=11;endArrow=block;endFill=0;endSize=8;strokeWidth=3;shadow=0;labelBackgroundColor=none;edgeStyle=orthogonalEdgeStyle;exitX=0.5;exitY=1;exitDx=0;exitDy=0;entryX=0.5;entryY=0;entryDx=0;entryDy=0;" edge="1" parent="WIyWlLk6GJQsqaUBKTNV-1" source="WIyWlLk6GJQsqaUBKTNV-6" target="xtiBK4g38aYfQXqHlMzY-7">
          <mxGeometry y="35" relative="1" as="geometry">
            <mxPoint x="290" y="340" as="sourcePoint" />
            <mxPoint x="300" y="410" as="targetPoint" />
            <Array as="points">
              <mxPoint x="230" y="420" />
              <mxPoint x="230" y="420" />
            </Array>
            <mxPoint as="offset" />
          </mxGeometry>
        </mxCell>
        <mxCell id="xtiBK4g38aYfQXqHlMzY-11" value="&lt;font face=&quot;Comic Sans MS&quot;&gt;&lt;span style=&quot;font-size: 15px;&quot;&gt;&lt;b&gt;&amp;nbsp;photoresistor&lt;/b&gt;&lt;/span&gt;&lt;/font&gt;&lt;div&gt;&lt;font face=&quot;Comic Sans MS&quot;&gt;&lt;span style=&quot;font-size: 15px;&quot;&gt;&lt;b&gt;&amp;lt;800&lt;/b&gt;&lt;/span&gt;&lt;/font&gt;&lt;br&gt;&lt;/div&gt;" style="rhombus;whiteSpace=wrap;html=1;shadow=0;fontFamily=Helvetica;fontSize=12;align=center;strokeWidth=3;spacing=6;spacingTop=-4;" vertex="1" parent="WIyWlLk6GJQsqaUBKTNV-1">
          <mxGeometry x="-323.6" y="290" width="145" height="100" as="geometry" />
        </mxCell>
        <mxCell id="xtiBK4g38aYfQXqHlMzY-12" value="" style="rounded=0;html=1;jettySize=auto;orthogonalLoop=1;fontSize=11;endArrow=block;endFill=0;endSize=8;strokeWidth=3;shadow=0;labelBackgroundColor=none;edgeStyle=orthogonalEdgeStyle;entryX=0;entryY=0.5;entryDx=0;entryDy=0;exitX=1;exitY=0.25;exitDx=0;exitDy=0;" edge="1" parent="WIyWlLk6GJQsqaUBKTNV-1" source="WIyWlLk6GJQsqaUBKTNV-3" target="xtiBK4g38aYfQXqHlMzY-6">
          <mxGeometry relative="1" as="geometry">
            <mxPoint x="380" y="70" as="sourcePoint" />
            <mxPoint x="380" y="140" as="targetPoint" />
            <Array as="points">
              <mxPoint x="320" y="90" />
            </Array>
          </mxGeometry>
        </mxCell>
        <mxCell id="xtiBK4g38aYfQXqHlMzY-13" value="" style="rounded=0;html=1;jettySize=auto;orthogonalLoop=1;fontSize=11;endArrow=block;endFill=0;endSize=8;strokeWidth=3;shadow=0;labelBackgroundColor=none;edgeStyle=orthogonalEdgeStyle;entryX=0.398;entryY=-0.076;entryDx=0;entryDy=0;entryPerimeter=0;" edge="1" parent="WIyWlLk6GJQsqaUBKTNV-1" target="xtiBK4g38aYfQXqHlMzY-18">
          <mxGeometry relative="1" as="geometry">
            <mxPoint x="220" as="sourcePoint" />
            <mxPoint x="-270" y="-20" as="targetPoint" />
            <Array as="points">
              <mxPoint x="-250" />
            </Array>
          </mxGeometry>
        </mxCell>
        <mxCell id="xtiBK4g38aYfQXqHlMzY-14" value="&lt;font size=&quot;1&quot; face=&quot;Comic Sans MS&quot;&gt;&lt;b style=&quot;font-size: 23px;&quot;&gt;Led_ON()&lt;/b&gt;&lt;/font&gt;" style="rounded=1;whiteSpace=wrap;html=1;fontSize=12;glass=0;strokeWidth=3;shadow=0;" vertex="1" parent="WIyWlLk6GJQsqaUBKTNV-1">
          <mxGeometry x="-610" y="565" width="200" height="60" as="geometry" />
        </mxCell>
        <mxCell id="xtiBK4g38aYfQXqHlMzY-15" value="&lt;b&gt;&lt;font style=&quot;font-size: 15px;&quot;&gt;YES&lt;/font&gt;&lt;/b&gt;" style="rounded=0;html=1;jettySize=auto;orthogonalLoop=1;fontSize=11;endArrow=block;endFill=0;endSize=8;strokeWidth=3;shadow=0;labelBackgroundColor=none;edgeStyle=orthogonalEdgeStyle;exitX=0;exitY=0.5;exitDx=0;exitDy=0;entryX=0.4;entryY=0.083;entryDx=0;entryDy=0;entryPerimeter=0;" edge="1" parent="WIyWlLk6GJQsqaUBKTNV-1" source="xtiBK4g38aYfQXqHlMzY-11" target="xtiBK4g38aYfQXqHlMzY-14">
          <mxGeometry x="0.0145" y="20" relative="1" as="geometry">
            <mxPoint x="-443.6" y="290" as="sourcePoint" />
            <mxPoint x="-520" y="530" as="targetPoint" />
            <Array as="points">
              <mxPoint x="-324" y="290" />
              <mxPoint x="-530" y="290" />
            </Array>
            <mxPoint as="offset" />
          </mxGeometry>
        </mxCell>
        <mxCell id="xtiBK4g38aYfQXqHlMzY-16" value="&lt;font size=&quot;1&quot; face=&quot;Comic Sans MS&quot;&gt;&lt;b style=&quot;font-size: 24px;&quot;&gt;Led_off()&lt;/b&gt;&lt;/font&gt;" style="rounded=1;whiteSpace=wrap;html=1;fontSize=12;glass=0;strokeWidth=3;shadow=0;" vertex="1" parent="WIyWlLk6GJQsqaUBKTNV-1">
          <mxGeometry x="-310" y="550" width="200" height="60" as="geometry" />
        </mxCell>
        <mxCell id="xtiBK4g38aYfQXqHlMzY-17" value="&lt;b&gt;&lt;font style=&quot;font-size: 15px;&quot;&gt;No&lt;/font&gt;&lt;/b&gt;" style="rounded=0;html=1;jettySize=auto;orthogonalLoop=1;fontSize=11;endArrow=block;endFill=0;endSize=8;strokeWidth=3;shadow=0;labelBackgroundColor=none;edgeStyle=orthogonalEdgeStyle;exitX=0.5;exitY=1;exitDx=0;exitDy=0;entryX=0.44;entryY=0.046;entryDx=0;entryDy=0;entryPerimeter=0;" edge="1" parent="WIyWlLk6GJQsqaUBKTNV-1" source="xtiBK4g38aYfQXqHlMzY-11" target="xtiBK4g38aYfQXqHlMzY-16">
          <mxGeometry x="0.0145" y="20" relative="1" as="geometry">
            <mxPoint x="-273.6" y="430" as="sourcePoint" />
            <mxPoint x="-210" y="520" as="targetPoint" />
            <Array as="points">
              <mxPoint x="-250" y="520" />
              <mxPoint x="-222" y="520" />
            </Array>
            <mxPoint as="offset" />
          </mxGeometry>
        </mxCell>
        <mxCell id="xtiBK4g38aYfQXqHlMzY-18" value="&lt;b style=&quot;font-size: 15px;&quot;&gt;&lt;font face=&quot;Comic Sans MS&quot; style=&quot;font-size: 15px;&quot;&gt;Active&amp;nbsp; photoresistor&lt;/font&gt;&lt;/b&gt;&lt;div style=&quot;font-size: 15px;&quot;&gt;&lt;b style=&quot;&quot;&gt;&lt;font face=&quot;y1WU77LzWbdZWBKxwMJ-&quot; style=&quot;font-size: 15px;&quot;&gt;(led) sensor&lt;/font&gt;&lt;/b&gt;&lt;/div&gt;" style="rounded=1;whiteSpace=wrap;html=1;fontSize=12;glass=0;strokeWidth=3;shadow=0;" vertex="1" parent="WIyWlLk6GJQsqaUBKTNV-1">
          <mxGeometry x="-330" y="80" width="200" height="60" as="geometry" />
        </mxCell>
        <mxCell id="xtiBK4g38aYfQXqHlMzY-19" value="" style="rounded=0;html=1;jettySize=auto;orthogonalLoop=1;fontSize=11;endArrow=block;endFill=0;endSize=8;strokeWidth=3;shadow=0;labelBackgroundColor=none;edgeStyle=orthogonalEdgeStyle;entryX=0.5;entryY=0;entryDx=0;entryDy=0;exitX=0.389;exitY=1.006;exitDx=0;exitDy=0;exitPerimeter=0;" edge="1" parent="WIyWlLk6GJQsqaUBKTNV-1" source="xtiBK4g38aYfQXqHlMzY-18" target="xtiBK4g38aYfQXqHlMzY-11">
          <mxGeometry relative="1" as="geometry">
            <mxPoint x="-250" y="180" as="sourcePoint" />
            <mxPoint x="-250" y="250" as="targetPoint" />
            <Array as="points">
              <mxPoint x="-250" y="140" />
              <mxPoint x="-250" y="290" />
            </Array>
          </mxGeometry>
        </mxCell>
        <mxCell id="xtiBK4g38aYfQXqHlMzY-20" value="&lt;font size=&quot;1&quot; face=&quot;Comic Sans MS&quot;&gt;&lt;b style=&quot;font-size: 22px;&quot;&gt;Window_close()&lt;/b&gt;&lt;/font&gt;" style="rounded=1;whiteSpace=wrap;html=1;fontSize=12;glass=0;strokeWidth=3;shadow=0;" vertex="1" parent="WIyWlLk6GJQsqaUBKTNV-1">
          <mxGeometry x="940" y="60" width="200" height="60" as="geometry" />
        </mxCell>
        <mxCell id="xtiBK4g38aYfQXqHlMzY-21" value="&lt;font size=&quot;1&quot; face=&quot;Comic Sans MS&quot;&gt;&lt;b style=&quot;font-size: 21px;&quot;&gt;Window_open()&lt;/b&gt;&lt;/font&gt;" style="rounded=1;whiteSpace=wrap;html=1;fontSize=12;glass=0;strokeWidth=3;shadow=0;" vertex="1" parent="WIyWlLk6GJQsqaUBKTNV-1">
          <mxGeometry x="830" y="320" width="200" height="60" as="geometry" />
        </mxCell>
        <mxCell id="xtiBK4g38aYfQXqHlMzY-22" value="&lt;b&gt;&lt;font style=&quot;font-size: 15px;&quot;&gt;NO&lt;/font&gt;&lt;/b&gt;" style="rounded=0;html=1;jettySize=auto;orthogonalLoop=1;fontSize=11;endArrow=block;endFill=0;endSize=8;strokeWidth=3;shadow=0;labelBackgroundColor=none;edgeStyle=orthogonalEdgeStyle;exitX=0.5;exitY=1;exitDx=0;exitDy=0;entryX=0;entryY=0.5;entryDx=0;entryDy=0;" edge="1" parent="WIyWlLk6GJQsqaUBKTNV-1" source="xtiBK4g38aYfQXqHlMzY-6" target="xtiBK4g38aYfQXqHlMzY-21">
          <mxGeometry y="35" relative="1" as="geometry">
            <mxPoint x="590" y="180" as="sourcePoint" />
            <mxPoint x="740" y="320" as="targetPoint" />
            <Array as="points">
              <mxPoint x="573" y="350" />
            </Array>
            <mxPoint as="offset" />
          </mxGeometry>
        </mxCell>
        <mxCell id="xtiBK4g38aYfQXqHlMzY-23" value="&lt;b&gt;&lt;font style=&quot;font-size: 15px;&quot;&gt;YES&lt;/font&gt;&lt;/b&gt;" style="rounded=0;html=1;jettySize=auto;orthogonalLoop=1;fontSize=11;endArrow=block;endFill=0;endSize=8;strokeWidth=3;shadow=0;labelBackgroundColor=none;edgeStyle=orthogonalEdgeStyle;entryX=0;entryY=0.5;entryDx=0;entryDy=0;exitX=1;exitY=0.5;exitDx=0;exitDy=0;" edge="1" parent="WIyWlLk6GJQsqaUBKTNV-1" source="xtiBK4g38aYfQXqHlMzY-6" target="xtiBK4g38aYfQXqHlMzY-20">
          <mxGeometry y="35" relative="1" as="geometry">
            <mxPoint x="650" y="90" as="sourcePoint" />
            <mxPoint x="800" y="320" as="targetPoint" />
            <Array as="points" />
            <mxPoint as="offset" />
          </mxGeometry>
        </mxCell>
        <mxCell id="xtiBK4g38aYfQXqHlMzY-24" value="" style="rounded=0;html=1;jettySize=auto;orthogonalLoop=1;fontSize=11;endArrow=block;endFill=0;endSize=8;strokeWidth=3;shadow=0;labelBackgroundColor=none;edgeStyle=orthogonalEdgeStyle;exitX=0;exitY=0.5;exitDx=0;exitDy=0;" edge="1" parent="WIyWlLk6GJQsqaUBKTNV-1" source="xtiBK4g38aYfQXqHlMzY-14">
          <mxGeometry x="0.0145" y="20" relative="1" as="geometry">
            <mxPoint x="-850" y="590" as="sourcePoint" />
            <mxPoint x="220" y="-40" as="targetPoint" />
            <Array as="points">
              <mxPoint x="-850" y="595" />
              <mxPoint x="-850" y="-70" />
              <mxPoint x="-700" y="-70" />
              <mxPoint x="-700" y="-50" />
              <mxPoint x="190" y="-50" />
              <mxPoint x="190" y="-40" />
            </Array>
            <mxPoint as="offset" />
          </mxGeometry>
        </mxCell>
        <mxCell id="xtiBK4g38aYfQXqHlMzY-25" value="" style="rounded=0;html=1;jettySize=auto;orthogonalLoop=1;fontSize=11;endArrow=block;endFill=0;endSize=8;strokeWidth=3;shadow=0;labelBackgroundColor=none;edgeStyle=orthogonalEdgeStyle;exitX=0.5;exitY=1;exitDx=0;exitDy=0;" edge="1" parent="WIyWlLk6GJQsqaUBKTNV-1" source="xtiBK4g38aYfQXqHlMzY-16">
          <mxGeometry x="0.0145" y="20" relative="1" as="geometry">
            <mxPoint x="-220" y="650" as="sourcePoint" />
            <mxPoint x="-840" y="580" as="targetPoint" />
            <Array as="points">
              <mxPoint x="-210" y="650" />
              <mxPoint x="-200" y="650" />
              <mxPoint x="-200" y="770" />
              <mxPoint x="-860" y="770" />
              <mxPoint x="-860" y="660" />
              <mxPoint x="-850" y="660" />
              <mxPoint x="-850" y="580" />
            </Array>
            <mxPoint as="offset" />
          </mxGeometry>
        </mxCell>
        <mxCell id="xtiBK4g38aYfQXqHlMzY-26" value="" style="line;strokeWidth=3;direction=south;html=1;" vertex="1" parent="WIyWlLk6GJQsqaUBKTNV-1">
          <mxGeometry x="1360" y="-70" width="10" height="710" as="geometry" />
        </mxCell>
        <mxCell id="xtiBK4g38aYfQXqHlMzY-27" value="" style="rounded=0;html=1;jettySize=auto;orthogonalLoop=1;fontSize=11;endArrow=block;endFill=0;endSize=8;strokeWidth=3;shadow=0;labelBackgroundColor=none;edgeStyle=orthogonalEdgeStyle;entryX=1;entryY=0.5;entryDx=0;entryDy=0;entryPerimeter=0;" edge="1" parent="WIyWlLk6GJQsqaUBKTNV-1" source="xtiBK4g38aYfQXqHlMzY-7" target="xtiBK4g38aYfQXqHlMzY-26">
          <mxGeometry y="35" relative="1" as="geometry">
            <mxPoint x="140" y="600" as="sourcePoint" />
            <mxPoint x="1210" y="680" as="targetPoint" />
            <Array as="points">
              <mxPoint x="150" y="650" />
              <mxPoint x="1050" y="650" />
              <mxPoint x="1050" y="630" />
              <mxPoint x="1365" y="630" />
            </Array>
            <mxPoint as="offset" />
          </mxGeometry>
        </mxCell>
        <mxCell id="xtiBK4g38aYfQXqHlMzY-29" value="" style="line;strokeWidth=3;html=1;" vertex="1" parent="WIyWlLk6GJQsqaUBKTNV-1">
          <mxGeometry x="800" y="505" width="560" height="10" as="geometry" />
        </mxCell>
        <mxCell id="xtiBK4g38aYfQXqHlMzY-31" value="" style="line;strokeWidth=3;html=1;" vertex="1" parent="WIyWlLk6GJQsqaUBKTNV-1">
          <mxGeometry x="1040" y="350" width="320" height="10" as="geometry" />
        </mxCell>
        <mxCell id="xtiBK4g38aYfQXqHlMzY-32" value="" style="line;strokeWidth=3;html=1;perimeter=backbonePerimeter;points=[];outlineConnect=0;" vertex="1" parent="WIyWlLk6GJQsqaUBKTNV-1">
          <mxGeometry x="1140" y="85" width="220" height="10" as="geometry" />
        </mxCell>
        <mxCell id="xtiBK4g38aYfQXqHlMzY-33" value="" style="line;strokeWidth=3;html=1;perimeter=backbonePerimeter;points=[];outlineConnect=0;" vertex="1" parent="WIyWlLk6GJQsqaUBKTNV-1">
          <mxGeometry x="230" y="-70" width="1140" height="10" as="geometry" />
        </mxCell>
      </root>
    </mxGraphModel>
  </diagram>
</mxfile>
